<svg width="1352" height="321" viewBox="0 0 1352 321" fill="none" xmlns="http://www.w3.org/2000/svg">
<path d="M369.5 187.25C369.5 172.417 371.667 159.333 376 148C380.5 136.667 386.5 127.25 394 119.75C401.667 112.083 410.5 106.333 420.5 102.5C430.667 98.6667 441.417 96.75 452.75 96.75C463.917 96.75 474.417 98.6667 484.25 102.5C494.25 106.333 503 112.083 510.5 119.75C518 127.25 523.917 136.667 528.25 148C532.75 159.333 535 172.417 535 187.25C535 202.083 532.75 215.167 528.25 226.5C523.917 237.833 518 247.333 510.5 255C503 262.5 494.25 268.167 484.25 272C474.417 275.833 463.917 277.75 452.75 277.75C441.417 277.75 430.667 275.833 420.5 272C410.5 268.167 401.667 262.5 394 255C386.5 247.333 380.5 237.833 376 226.5C371.667 215.167 369.5 202.083 369.5 187.25ZM395 187.25C395 197.75 396.333 207.333 399 216C401.667 224.5 405.417 231.75 410.25 237.75C415.25 243.75 421.25 248.417 428.25 251.75C435.417 254.917 443.417 256.5 452.25 256.5C461.083 256.5 469 254.917 476 251.75C483 248.417 488.917 243.75 493.75 237.75C498.75 231.75 502.583 224.5 505.25 216C507.917 207.333 509.25 197.75 509.25 187.25C509.25 176.75 507.917 167.25 505.25 158.75C502.583 150.083 498.75 142.75 493.75 136.75C488.917 130.75 483 126.167 476 123C469 119.667 461.083 118 452.25 118C443.417 118 435.417 119.667 428.25 123C421.25 126.167 415.25 130.75 410.25 136.75C405.417 142.75 401.667 150.083 399 158.75C396.333 167.25 395 176.75 395 187.25ZM659.83 209.25C659.83 194.083 656.08 182.417 648.58 174.25C641.08 166.083 631.08 162 618.58 162C611.58 162 606.08 162.25 602.08 162.75C598.247 163.25 595.163 163.833 592.83 164.5V246.5C595.663 248.833 599.747 251.083 605.08 253.25C610.413 255.417 616.247 256.5 622.58 256.5C629.247 256.5 634.913 255.333 639.58 253C644.413 250.5 648.33 247.167 651.33 243C654.33 238.667 656.497 233.667 657.83 228C659.163 222.167 659.83 215.917 659.83 209.25ZM684.08 209.25C684.08 219.083 682.747 228.167 680.08 236.5C677.58 244.833 673.83 252 668.83 258C663.83 264 657.663 268.667 650.33 272C643.163 275.333 634.913 277 625.58 277C618.08 277 611.413 276 605.58 274C599.913 272 595.663 270.083 592.83 268.25V320.25H569.58V148C575.08 146.667 581.913 145.25 590.08 143.75C598.413 142.083 607.997 141.25 618.83 141.25C628.83 141.25 637.83 142.833 645.83 146C653.83 149.167 660.663 153.667 666.33 159.5C671.997 165.333 676.33 172.5 679.33 181C682.497 189.333 684.08 198.75 684.08 209.25ZM738.547 144H787.797V163.5H738.547V223.5C738.547 230 739.047 235.417 740.047 239.75C741.047 243.917 742.547 247.25 744.547 249.75C746.547 252.083 749.047 253.75 752.047 254.75C755.047 255.75 758.547 256.25 762.547 256.25C769.547 256.25 775.13 255.5 779.297 254C783.63 252.333 786.63 251.167 788.297 250.5L792.797 269.75C790.464 270.917 786.38 272.333 780.547 274C774.714 275.833 768.047 276.75 760.547 276.75C751.714 276.75 744.38 275.667 738.547 273.5C732.88 271.167 728.297 267.75 724.797 263.25C721.297 258.75 718.797 253.25 717.297 246.75C715.964 240.083 715.297 232.417 715.297 223.75V107.75L738.547 103.75V144ZM840.633 274H817.383V144H840.633V274ZM828.883 120.5C824.716 120.5 821.133 119.167 818.133 116.5C815.299 113.667 813.883 109.917 813.883 105.25C813.883 100.583 815.299 96.9167 818.133 94.25C821.133 91.4167 824.716 90 828.883 90C833.049 90 836.549 91.4167 839.383 94.25C842.383 96.9167 843.883 100.583 843.883 105.25C843.883 109.917 842.383 113.667 839.383 116.5C836.549 119.167 833.049 120.5 828.883 120.5ZM880.615 147.75C885.949 146.417 892.949 145 901.615 143.5C910.449 142 920.615 141.25 932.115 141.25C940.449 141.25 947.449 142.417 953.115 144.75C958.782 146.917 963.532 150.167 967.365 154.5C968.532 153.667 970.365 152.5 972.865 151C975.365 149.5 978.449 148.083 982.115 146.75C985.782 145.25 989.865 144 994.365 143C998.865 141.833 1003.7 141.25 1008.87 141.25C1018.87 141.25 1027.03 142.75 1033.37 145.75C1039.7 148.583 1044.62 152.667 1048.12 158C1051.78 163.333 1054.2 169.667 1055.37 177C1056.7 184.333 1057.37 192.333 1057.37 201V274H1034.12V206C1034.12 198.333 1033.7 191.75 1032.87 186.25C1032.2 180.75 1030.78 176.167 1028.62 172.5C1026.62 168.833 1023.78 166.167 1020.12 164.5C1016.62 162.667 1012.03 161.75 1006.37 161.75C998.532 161.75 992.032 162.833 986.865 165C981.865 167 978.449 168.833 976.615 170.5C977.949 174.833 978.949 179.583 979.615 184.75C980.282 189.917 980.615 195.333 980.615 201V274H957.365V206C957.365 198.333 956.949 191.75 956.115 186.25C955.282 180.75 953.782 176.167 951.615 172.5C949.615 168.833 946.782 166.167 943.115 164.5C939.615 162.667 935.115 161.75 929.615 161.75C927.282 161.75 924.782 161.833 922.115 162C919.449 162.167 916.865 162.417 914.365 162.75C912.032 162.917 909.865 163.167 907.865 163.5C905.865 163.833 904.532 164.083 903.865 164.25V274H880.615V147.75ZM1199.45 270.25C1194.11 271.583 1187.03 273 1178.2 274.5C1169.53 276 1159.45 276.75 1147.95 276.75C1137.95 276.75 1129.53 275.333 1122.7 272.5C1115.86 269.5 1110.36 265.333 1106.2 260C1102.03 254.667 1099.03 248.417 1097.2 241.25C1095.36 233.917 1094.45 225.833 1094.45 217V144H1117.7V212C1117.7 227.833 1120.2 239.167 1125.2 246C1130.2 252.833 1138.61 256.25 1150.45 256.25C1152.95 256.25 1155.53 256.167 1158.2 256C1160.86 255.833 1163.36 255.667 1165.7 255.5C1168.03 255.167 1170.11 254.917 1171.95 254.75C1173.95 254.417 1175.36 254.083 1176.2 253.75V144H1199.45V270.25ZM1269.75 257.25C1279.25 257.25 1286.25 256 1290.75 253.5C1295.42 251 1297.75 247 1297.75 241.5C1297.75 235.833 1295.5 231.333 1291 228C1286.5 224.667 1279.09 220.917 1268.75 216.75C1263.75 214.75 1258.92 212.75 1254.25 210.75C1249.75 208.583 1245.84 206.083 1242.5 203.25C1239.17 200.417 1236.5 197 1234.5 193C1232.5 189 1231.5 184.083 1231.5 178.25C1231.5 166.75 1235.75 157.667 1244.25 151C1252.75 144.167 1264.34 140.75 1279 140.75C1282.67 140.75 1286.34 141 1290 141.5C1293.67 141.833 1297.09 142.333 1300.25 143C1303.42 143.5 1306.17 144.083 1308.5 144.75C1311 145.417 1312.92 146 1314.25 146.5L1310 166.5C1307.5 165.167 1303.59 163.833 1298.25 162.5C1292.92 161 1286.5 160.25 1279 160.25C1272.5 160.25 1266.84 161.583 1262 164.25C1257.17 166.75 1254.75 170.75 1254.75 176.25C1254.75 179.083 1255.25 181.583 1256.25 183.75C1257.42 185.917 1259.09 187.917 1261.25 189.75C1263.59 191.417 1266.42 193 1269.75 194.5C1273.09 196 1277.09 197.583 1281.75 199.25C1287.92 201.583 1293.42 203.917 1298.25 206.25C1303.09 208.417 1307.17 211 1310.5 214C1314 217 1316.67 220.667 1318.5 225C1320.34 229.167 1321.25 234.333 1321.25 240.5C1321.25 252.5 1316.75 261.583 1307.75 267.75C1298.92 273.917 1286.25 277 1269.75 277C1258.25 277 1249.25 276 1242.75 274C1236.25 272.167 1231.84 270.75 1229.5 269.75L1233.75 249.75C1236.42 250.75 1240.67 252.25 1246.5 254.25C1252.34 256.25 1260.09 257.25 1269.75 257.25Z" fill="white"/>
<g clip-path="url(#clip0_8_158)">
<path d="M301.127 9.11034L144.622 1.08924C141.294 0.929095 138.096 2.1527 135.753 4.49545L86.2584 53.9902C83.0083 57.2404 81.9636 62.1021 83.5887 66.3999C85.2468 70.6977 89.2627 73.6248 93.8426 73.8491L239.887 81.341L247.362 227.369C247.603 231.965 250.514 235.998 254.812 237.623C259.126 239.264 263.988 238.22 267.238 234.969L316.732 185.475C319.075 183.132 320.282 179.918 320.155 176.623L312.134 20.1172C311.829 14.17 307.058 9.39869 301.127 9.11034Z" fill="#205781"/>
<path d="M254.363 55.5847L97.6293 47.3356C94.2966 47.1706 91.096 48.3915 88.7532 50.7342L39.2584 100.229C36.0083 103.479 34.9689 108.346 36.6022 112.652C38.2685 116.958 42.2941 119.895 46.8806 120.126L193.138 127.831L200.826 274.071C201.073 278.674 203.994 282.716 208.3 284.35C212.622 285.999 217.489 284.96 220.739 281.71L270.234 232.215C272.577 229.872 273.781 226.655 273.649 223.356L265.4 66.6221C265.087 60.6662 260.302 55.8817 254.363 55.5847Z" fill="#98D2C0"/>
<path d="M200.363 109.346L43.6293 101.097C40.2966 100.932 37.096 102.153 34.7532 104.495L-14.7416 153.99C-17.9917 157.24 -19.0311 162.107 -17.3978 166.413C-15.7315 170.719 -11.7059 173.656 -7.1194 173.887L139.138 181.592L146.826 327.832C147.073 332.435 149.994 336.478 154.3 338.111C158.622 339.761 163.489 338.721 166.739 335.471L216.234 285.976C218.577 283.634 219.781 280.416 219.649 277.117L211.4 120.383C211.087 114.427 206.302 109.643 200.363 109.346Z" fill="white"/>
<path fill-rule="evenodd" clip-rule="evenodd" d="M20.3944 199.768C19.1623 193.746 13.9838 189.34 7.84557 189.077C4.59117 188.97 1.38588 188.974 -1.82387 189.095C-7.97553 189.353 -13.1406 193.755 -14.3772 199.768C-14.8013 201.759 -15.2522 203.969 -15.6629 205.938C-16.02 207.683 -17.3816 209.049 -19.1315 209.411C-22.8457 210.183 -26.5108 211.161 -30.109 212.34C-31.8188 212.907 -33.6759 212.407 -34.8544 211.076C-36.216 209.572 -37.6936 207.902 -39.0508 206.375C-43.131 201.777 -49.8139 200.55 -55.2647 203.389C-58.1352 204.925 -60.9164 206.527 -63.6306 208.241C-68.8224 211.545 -71.1036 217.938 -69.1662 223.763C-68.5323 225.696 -67.8225 227.839 -67.193 229.745C-66.6305 231.437 -67.1305 233.303 -68.4608 234.486C-71.2911 237.013 -73.9697 239.696 -76.5053 242.513C-77.7017 243.857 -79.5588 244.357 -81.2463 243.794C-83.1703 243.169 -85.2908 242.464 -87.2283 241.821C-93.0585 239.879 -99.4646 242.156 -102.759 247.339C-104.482 250.102 -106.085 252.888 -107.581 255.727C-110.429 261.182 -109.201 267.861 -104.616 271.936C-103.103 273.294 -101.415 274.794 -99.9155 276.128C-98.5807 277.316 -98.0807 279.177 -98.6432 280.869C-99.8307 284.476 -100.813 288.137 -101.599 291.842C-101.96 293.601 -103.322 294.967 -105.063 295.324C-107.04 295.744 -109.228 296.195 -111.232 296.606C-117.25 297.838 -121.661 303.012 -121.92 309.15C-122.031 312.404 -122.027 315.614 -121.906 318.824C-121.643 324.976 -117.241 330.141 -111.228 331.377C-109.237 331.801 -107.031 332.252 -105.058 332.658C-103.313 333.016 -101.951 334.382 -101.59 336.132C-100.817 339.846 -99.8352 343.506 -98.6566 347.109C-98.0941 348.814 -98.5941 350.671 -99.92 351.854C-101.429 353.212 -103.094 354.694 -104.621 356.051C-109.219 360.131 -110.451 366.814 -107.607 372.26C-106.072 375.135 -104.469 377.912 -102.755 380.626C-99.4512 385.822 -93.0585 388.099 -87.2328 386.166C-85.2998 385.532 -83.1614 384.822 -81.2507 384.189C-79.5588 383.631 -77.6928 384.126 -76.5098 385.456C-73.983 388.287 -71.3001 390.97 -68.4832 393.505C-67.1394 394.702 -66.6439 396.559 -67.2019 398.246C-67.8269 400.17 -68.5323 402.291 -69.1796 404.228C-71.117 410.059 -68.8403 416.465 -63.6574 419.759C-60.894 421.482 -58.1084 423.085 -55.2692 424.581C-49.8139 427.429 -43.14 426.201 -39.0597 421.612C-37.7026 420.098 -36.2071 418.411 -34.8678 416.911C-33.6848 415.581 -31.8188 415.081 -30.1313 415.639C-26.5198 416.831 -22.8591 417.808 -19.1583 418.594C-17.395 418.956 -16.0289 420.322 -15.6718 422.063C-15.2522 424.04 -14.8057 426.228 -14.395 428.232C-13.1585 434.25 -7.98446 438.661 -1.84619 438.92C1.4082 439.027 4.61795 439.022 7.8277 438.902C13.9794 438.643 19.1444 434.241 20.3765 428.228C20.8006 426.237 21.256 424.027 21.6622 422.058C22.0194 420.313 23.3854 418.951 25.1309 418.59C28.8496 417.813 32.5102 416.835 36.1084 415.657C37.8181 415.094 39.6752 415.59 40.8583 416.92C42.2154 418.424 43.693 420.094 45.0546 421.621C49.1304 426.219 55.8133 427.451 61.2641 424.607C64.1345 423.072 66.9157 421.469 69.63 419.755C74.8263 416.451 77.103 410.059 75.1656 404.233C74.5361 402.3 73.8263 400.157 73.1924 398.251C72.6299 396.559 73.1299 394.693 74.4602 393.51C77.2905 390.983 79.9735 388.3 82.5047 385.483C83.7056 384.139 85.5627 383.639 87.2501 384.202C89.1742 384.827 91.2947 385.532 93.2321 386.175C99.0624 388.117 105.464 385.84 108.763 380.657C110.482 377.894 112.089 375.108 113.584 372.269C116.433 366.814 115.205 360.136 110.616 356.06C109.102 354.703 107.415 353.203 105.915 351.868C104.58 350.68 104.08 348.819 104.643 347.127C105.83 343.52 106.812 339.859 107.598 336.154C107.959 334.395 109.321 333.029 111.067 332.672C113.044 332.252 115.227 331.806 117.232 331.391C123.249 330.158 127.66 324.984 127.923 318.846C128.03 315.592 128.026 312.382 127.906 309.172C127.642 303.021 123.245 297.856 117.227 296.619C115.236 296.195 113.031 295.744 111.062 295.338C109.317 294.981 107.951 293.615 107.589 291.865C106.817 288.15 105.835 284.49 104.66 280.887C104.094 279.182 104.593 277.325 105.924 276.142C107.428 274.785 109.093 273.303 110.625 271.945C115.223 267.87 116.45 261.182 113.607 255.736C112.075 252.861 110.468 250.084 108.759 247.37C105.455 242.174 99.0624 239.897 93.2321 241.834C91.3036 242.464 89.1608 243.174 87.2546 243.808C85.5626 244.366 83.6966 243.87 82.5091 242.54C79.9824 239.709 77.3039 237.027 74.487 234.491C73.1433 233.294 72.6433 231.437 73.2058 229.75C73.8263 227.826 74.5361 225.705 75.1789 223.768C77.1209 217.938 74.8441 211.532 69.6612 208.237C66.8979 206.518 64.1122 204.911 61.273 203.416C55.8133 200.567 49.1393 201.795 45.0635 206.384C43.7019 207.898 42.2065 209.585 40.8672 211.085C39.6842 212.42 37.8226 212.915 36.1307 212.357C32.5236 211.165 28.863 210.188 25.1577 209.402C23.3944 209.041 22.0327 207.674 21.6756 205.933L20.3944 199.768ZM11.649 201.563C12.0642 203.59 12.5196 205.795 12.9392 207.768C14.0061 212.965 18.0953 217.063 23.3274 218.143C26.6934 218.853 30.037 219.75 33.3272 220.835C38.3985 222.513 43.9921 221.013 47.5456 217.014C48.8715 215.523 50.3491 213.857 51.7196 212.335C53.0946 210.786 55.3178 210.375 57.1302 211.322C59.7641 212.715 62.3578 214.21 64.9068 215.795C66.5943 216.871 67.3532 219.005 66.7104 220.947C66.0541 222.911 65.3399 225.054 64.7238 226.969C63.0453 232.009 64.5453 237.593 68.5318 241.147C71.0898 243.446 73.5406 245.897 75.8486 248.477C79.3976 252.468 84.9912 253.968 90.067 252.281C91.9598 251.656 94.0759 250.946 96.0222 250.316C97.991 249.665 100.116 250.419 101.214 252.138C102.803 254.665 104.299 257.263 105.71 259.905C106.638 261.678 106.232 263.91 104.696 265.271C103.152 266.642 101.464 268.142 99.9686 269.49C95.9999 273.012 94.4955 278.597 96.183 283.673C97.2454 286.945 98.1427 290.289 98.8436 293.677C99.924 298.909 104.022 303.003 109.263 304.083C111.214 304.485 113.401 304.931 115.406 305.355C117.433 305.775 118.897 307.494 118.982 309.534C119.098 312.512 119.098 315.511 118.999 318.507C118.91 320.511 117.446 322.23 115.437 322.645C113.41 323.065 111.201 323.516 109.232 323.935C104.031 325.002 99.9373 329.096 98.857 334.328C98.1472 337.69 97.2499 341.033 96.1651 344.328C94.4866 349.399 95.9865 354.988 99.982 358.542C101.477 359.868 103.143 361.345 104.665 362.72C106.214 364.095 106.62 366.314 105.678 368.126C104.285 370.76 102.79 373.354 101.205 375.903C100.129 377.595 97.991 378.349 96.0535 377.707C94.0848 377.055 91.9464 376.341 90.0313 375.72C84.9912 374.046 79.4065 375.541 75.853 379.532C73.554 382.086 71.1032 384.541 68.5228 386.845C64.5319 390.394 63.0319 395.992 64.7194 401.063C65.3443 402.956 66.0541 405.077 66.6836 407.023C67.3354 408.987 66.5809 411.117 64.8577 412.21C62.3355 413.8 59.7373 415.295 57.0945 416.71C55.3222 417.634 53.0901 417.228 51.7286 415.697C50.358 414.148 48.8581 412.46 47.5099 410.965C43.9877 406.996 38.3985 405.496 33.3272 407.179C30.0549 408.242 26.7068 409.139 23.3229 409.844C18.0864 410.925 13.9928 415.023 12.9169 420.259C12.5151 422.21 12.0642 424.398 11.6401 426.402C11.2205 428.429 9.50624 429.893 7.46611 429.982C4.48849 430.098 1.48855 430.098 -1.50692 429.996C-3.51135 429.911 -5.23452 428.442 -5.64523 426.433C-6.06486 424.406 -6.51574 422.201 -6.93538 420.228C-8.00678 415.032 -12.096 410.938 -17.328 409.853C-20.6895 409.143 -24.0377 408.246 -27.3278 407.161C-32.3991 405.483 -37.9883 406.983 -41.5418 410.983C-42.8676 412.474 -44.3498 414.139 -45.7203 415.661C-47.0952 417.21 -49.3139 417.621 -51.1264 416.674C-53.7603 415.282 -56.354 413.786 -58.903 412.206C-60.5949 411.125 -61.3494 408.992 -60.7065 407.05C-60.0548 405.085 -59.3405 402.943 -58.72 401.027C-57.0459 395.992 -58.5414 390.403 -62.5324 386.849C-65.0859 384.55 -67.5412 382.099 -69.8492 379.519C-73.3982 375.528 -78.9919 374.028 -84.0676 375.716C-85.956 376.345 -88.0765 377.05 -90.0229 377.68C-91.9871 378.336 -94.1165 377.577 -95.2147 375.858C-96.7995 373.332 -98.295 370.738 -99.7102 368.091C-100.639 366.318 -100.228 364.086 -98.6968 362.725C-97.1477 361.354 -95.4603 359.854 -93.9648 358.506C-89.9961 354.984 -88.4961 349.399 -90.1791 344.323C-91.2416 341.051 -92.1434 337.707 -92.8442 334.319C-93.9246 329.087 -98.0227 324.993 -103.259 323.918C-105.215 323.511 -107.398 323.065 -109.402 322.641C-111.433 322.221 -112.893 320.502 -112.982 318.462C-113.098 315.485 -113.098 312.485 -113 309.489C-112.911 307.485 -111.442 305.766 -109.438 305.355C-107.406 304.931 -105.201 304.48 -103.232 304.061C-98.0316 302.994 -93.938 298.905 -92.8576 293.668C-92.1478 290.307 -91.2461 286.963 -90.1613 283.668C-88.4827 278.597 -89.9827 273.008 -93.9826 269.454C-95.4737 268.129 -97.1433 266.651 -98.6611 265.276C-100.215 263.901 -100.621 261.682 -99.6789 259.87C-98.2861 257.236 -96.7861 254.642 -95.2058 252.093C-94.1299 250.401 -91.9916 249.647 -90.0497 250.29C-88.0854 250.941 -85.9426 251.656 -84.0275 252.276C-78.9919 253.95 -73.4027 252.455 -69.8492 248.464C-67.5546 245.91 -65.0993 243.459 -62.519 241.151C-58.528 237.602 -57.0281 232.009 -58.7155 226.933C-58.7249 226.905 -58.7344 226.876 -58.7438 226.848L-58.744 226.847C-59.3662 224.976 -60.0599 222.89 -60.6842 220.978C-61.336 219.009 -60.5771 216.884 -58.8584 215.786C-56.3361 214.197 -53.7379 212.701 -51.0951 211.286C-49.3184 210.362 -47.0863 210.768 -45.7292 212.304C-44.3542 213.848 -42.8542 215.536 -41.5105 217.031C-37.9838 221 -32.3991 222.5 -27.3233 220.817C-24.0511 219.755 -20.7074 218.857 -17.3191 218.152C-12.0871 217.072 -7.99339 212.973 -6.91752 207.737C-6.51128 205.786 -6.06485 203.599 -5.64076 201.594C-5.22112 199.568 -3.50242 198.103 -1.46228 198.018C1.51087 197.898 4.51528 197.898 7.51075 198.001C9.51517 198.085 11.2339 199.554 11.6446 201.563H11.649Z" fill="white"/>
<path d="M11.649 201.563C12.0642 203.59 12.5196 205.795 12.9392 207.768C14.0061 212.965 18.0953 217.063 23.3274 218.143C26.6934 218.853 30.037 219.75 33.3272 220.835C38.3985 222.513 43.9921 221.013 47.5456 217.014C48.8715 215.523 50.3491 213.857 51.7196 212.335C53.0946 210.786 55.3178 210.375 57.1302 211.322C59.7641 212.715 62.3578 214.21 64.9068 215.795C66.5943 216.871 67.3532 219.005 66.7104 220.947C66.0541 222.911 65.3399 225.054 64.7238 226.969C63.0453 232.009 64.5453 237.593 68.5318 241.147C71.0898 243.446 73.5406 245.897 75.8486 248.477C79.3976 252.468 84.9912 253.968 90.067 252.281C91.9598 251.656 94.0759 250.946 96.0222 250.316C97.991 249.665 100.116 250.419 101.214 252.138C102.803 254.665 104.299 257.263 105.71 259.905C106.638 261.678 106.232 263.91 104.696 265.271C103.152 266.642 101.464 268.142 99.9686 269.49C95.9999 273.012 94.4955 278.597 96.183 283.673C97.2454 286.945 98.1427 290.289 98.8436 293.677C99.924 298.909 104.022 303.003 109.263 304.083C111.214 304.485 113.401 304.931 115.406 305.355C117.433 305.775 118.897 307.494 118.982 309.534C119.098 312.512 119.098 315.511 118.999 318.507C118.91 320.511 117.446 322.23 115.437 322.645C113.41 323.065 111.201 323.516 109.232 323.935C104.031 325.002 99.9373 329.096 98.857 334.328C98.1472 337.69 97.2499 341.033 96.1651 344.328C94.4866 349.399 95.9865 354.988 99.982 358.542C101.477 359.868 103.143 361.345 104.665 362.72C106.214 364.095 106.62 366.314 105.678 368.126C104.285 370.76 102.79 373.354 101.205 375.903C100.129 377.595 97.991 378.349 96.0535 377.707C94.0848 377.055 91.9464 376.341 90.0313 375.72C84.9912 374.046 79.4065 375.541 75.853 379.532C73.554 382.086 71.1032 384.541 68.5228 386.845C64.5319 390.394 63.0319 395.992 64.7194 401.063C65.3443 402.956 66.0541 405.077 66.6836 407.023C67.3354 408.987 66.5809 411.117 64.8577 412.21C62.3355 413.8 59.7373 415.295 57.0945 416.71C55.3222 417.634 53.0901 417.228 51.7286 415.697C50.358 414.148 48.8581 412.46 47.5099 410.965C43.9877 406.996 38.3985 405.496 33.3272 407.179C30.0549 408.242 26.7068 409.139 23.3229 409.844C18.0864 410.925 13.9928 415.023 12.9169 420.259C12.5151 422.21 12.0642 424.398 11.6401 426.402C11.2205 428.429 9.50624 429.893 7.46611 429.982C4.48849 430.098 1.48855 430.098 -1.50692 429.996C-3.51135 429.911 -5.23452 428.442 -5.64523 426.433C-6.06486 424.406 -6.51574 422.201 -6.93538 420.228C-8.00678 415.032 -12.096 410.938 -17.328 409.853C-20.6895 409.143 -24.0377 408.246 -27.3278 407.161C-32.3991 405.483 -37.9883 406.983 -41.5418 410.983C-42.8676 412.474 -44.3498 414.139 -45.7203 415.661C-47.0952 417.21 -49.3139 417.621 -51.1264 416.674C-53.7603 415.282 -56.354 413.786 -58.903 412.206C-60.5949 411.125 -61.3494 408.992 -60.7065 407.05C-60.0548 405.085 -59.3405 402.943 -58.72 401.027C-57.0459 395.992 -58.5414 390.403 -62.5324 386.849C-65.0859 384.55 -67.5412 382.099 -69.8492 379.519C-73.3982 375.528 -78.9919 374.028 -84.0676 375.716C-85.956 376.345 -88.0765 377.05 -90.0229 377.68C-91.9871 378.336 -94.1165 377.577 -95.2147 375.858C-96.7995 373.332 -98.295 370.738 -99.7102 368.091C-100.639 366.318 -100.228 364.086 -98.6968 362.725C-97.1477 361.354 -95.4603 359.854 -93.9648 358.506C-89.9961 354.984 -88.4961 349.399 -90.1791 344.323C-91.2416 341.051 -92.1434 337.707 -92.8442 334.319C-93.9246 329.087 -98.0227 324.993 -103.259 323.918C-105.215 323.511 -107.398 323.065 -109.402 322.641C-111.433 322.221 -112.893 320.502 -112.982 318.462C-113.098 315.485 -113.098 312.485 -113 309.489C-112.911 307.485 -111.442 305.766 -109.438 305.355C-107.406 304.931 -105.201 304.48 -103.232 304.061C-98.0316 302.994 -93.938 298.905 -92.8576 293.668C-92.1478 290.307 -91.2461 286.963 -90.1613 283.668C-88.4827 278.597 -89.9827 273.008 -93.9826 269.454C-95.4737 268.129 -97.1433 266.651 -98.6611 265.276C-100.215 263.901 -100.621 261.682 -99.6789 259.87C-98.2861 257.236 -96.7861 254.642 -95.2058 252.093C-94.1299 250.401 -91.9916 249.647 -90.0497 250.29C-88.0854 250.941 -85.9426 251.656 -84.0275 252.276C-78.9919 253.95 -73.4027 252.455 -69.8492 248.464C-67.5546 245.91 -65.0993 243.459 -62.519 241.151C-58.528 237.602 -57.0281 232.009 -58.7155 226.933L-58.7438 226.848L-58.744 226.847C-59.3662 224.976 -60.0599 222.89 -60.6842 220.978C-61.336 219.009 -60.5771 216.884 -58.8584 215.786C-56.3361 214.197 -53.7379 212.701 -51.0951 211.286C-49.3184 210.362 -47.0863 210.768 -45.7292 212.304C-44.3542 213.848 -42.8542 215.536 -41.5105 217.031C-37.9838 221 -32.3991 222.5 -27.3233 220.817C-24.0511 219.755 -20.7074 218.857 -17.3191 218.152C-12.0871 217.072 -7.99339 212.973 -6.91752 207.737C-6.51128 205.786 -6.06485 203.599 -5.64076 201.594C-5.22112 199.568 -3.50242 198.103 -1.46228 198.018C1.51087 197.898 4.51528 197.898 7.51075 198.001C9.51517 198.085 11.2339 199.554 11.6446 201.563H11.649Z" fill="white"/>
</g>
<defs>
<clipPath id="clip0_8_158">
<rect width="320" height="320" fill="white"/>
</clipPath>
</defs>
</svg>
