<?xml version="1.0" encoding="UTF-8"?>
<svg width="217px" height="51px" viewBox="0 0 217 51" version="1.1" xmlns="http://www.w3.org/2000/svg" xmlns:xlink="http://www.w3.org/1999/xlink">
    <title>Artboard</title>
    <defs>
        <polygon id="path-1" points="0 0.09648 5.120724 0.09648 5.120724 5.25336 0 5.25336"></polygon>
        <polygon id="path-3" points="0.052836 0.01902 5.1726 0.01902 5.1726 5.1759 0.052836 5.1759"></polygon>
        <polygon id="path-5" points="0.089232 0.095904 5.366352 0.095904 5.366352 7.8 0.089232 7.8"></polygon>
        <polygon id="path-7" points="0 47.21256 203.2926 47.21256 203.2926 0 0 0"></polygon>
    </defs>
    <g id="Artboard" stroke="none" stroke-width="1" fill="none" fill-rule="evenodd">
        <g id="Group-60" transform="translate(6.000000, 2.000000)">
            <g id="Group-3" transform="translate(0.000000, 6.892560)">
                <mask id="mask-2" fill="white">
                    <use xlink:href="#path-1"></use>
                </mask>
                <g id="Clip-2"></g>
                <path d="M2.558364,5.25336 C3.973044,5.25336 5.120724,4.09956 5.120724,2.676 C5.120724,1.25232 3.973044,0.09648 2.558364,0.09648 C1.147764,0.09648 -3.6e-05,1.25232 -3.6e-05,2.676 C-3.6e-05,4.09956 1.147764,5.25336 2.558364,5.25336" id="Fill-1" fill="#009BDD" mask="url(#mask-2)"></path>
            </g>
            <g id="Group-6" transform="translate(198.120000, 27.172560)">
                <mask id="mask-4" fill="white">
                    <use xlink:href="#path-3"></use>
                </mask>
                <g id="Clip-5"></g>
                <path d="M2.610276,5.1759 C4.024836,5.1759 5.172636,4.0221 5.172636,2.5995 C5.172636,1.17486 4.024836,0.01902 2.610276,0.01902 C1.198596,0.01902 0.052836,1.17486 0.052836,2.5995 C0.052836,4.0221 1.198596,5.1759 2.610276,5.1759" id="Fill-4" fill="#6B1A6B" mask="url(#mask-4)"></path>
            </g>
            <path d="M79.505544,16.729764 L79.504464,16.720764 C79.498464,13.847364 78.501264,11.423484 76.690344,9.786084 L76.562904,9.671724 L76.533864,9.645684 L76.527864,9.645684 C74.824224,8.182884 72.517704,7.411404 69.781824,7.385244 C69.771744,7.383204 69.748704,7.382244 69.722664,7.382244 C69.697584,7.382244 69.671424,7.383204 69.646344,7.386324 L69.626304,7.385244 C69.543984,7.385244 69.488784,7.387284 69.448704,7.389324 C69.416544,7.387284 69.365424,7.385244 69.305304,7.385244 L69.264144,7.386324 C69.243024,7.384284 69.216984,7.382244 69.183864,7.382244 L69.173784,7.382244 L69.159744,7.382244 C69.145704,7.382244 69.126624,7.382244 69.106584,7.385244 C66.377664,7.415364 64.079184,8.183844 62.380584,9.645684 L62.372664,9.645684 L62.217144,9.786084 C60.413184,11.416404 59.415984,13.829364 59.402904,16.687644 L59.401944,16.690644 L59.398944,16.701684 L59.384904,31.499004 C59.384904,31.696644 59.469144,31.891284 59.616624,32.028684 C59.764104,32.169204 59.970744,32.250444 60.178464,32.250444 L62.812104,32.250444 C63.019704,32.250444 63.223344,32.169204 63.372864,32.028684 C63.522384,31.891284 63.604584,31.696644 63.604584,31.499004 L63.610584,17.201244 C63.626664,15.106524 64.162464,13.621644 65.129664,12.640404 C66.066624,11.690364 67.496304,11.153604 69.464784,11.115444 C71.414064,11.153604 72.841704,11.690364 73.778784,12.640404 C74.745024,13.621644 75.280704,15.106524 75.297864,17.205324 L75.293784,31.499004 C75.293784,31.696644 75.378024,31.891284 75.525504,32.028684 C75.674064,32.169204 75.879744,32.250444 76.087344,32.250444 L78.724944,32.250444 C78.932664,32.250444 79.137384,32.169204 79.285824,32.028684 C79.436304,31.891284 79.518504,31.696644 79.518504,31.499004 L79.505544,16.729764 Z" id="Fill-7" fill="#D7006D"></path>
            <path d="M171.333444,16.729764 L171.332484,16.720764 C171.326364,13.847364 170.329164,11.423484 168.518244,9.786084 L168.390924,9.671724 L168.361764,9.645684 L168.355764,9.645684 C166.652124,8.182884 164.345724,7.411404 161.609724,7.385244 C161.599764,7.383204 161.576604,7.382244 161.550564,7.382244 C161.525484,7.382244 161.499444,7.383204 161.474364,7.386324 L161.454204,7.385244 C161.371884,7.385244 161.316684,7.387284 161.276604,7.389324 C161.244564,7.387284 161.193324,7.385244 161.133204,7.385244 L161.092044,7.386324 C161.070924,7.384284 161.044884,7.382244 161.011764,7.382244 L161.001684,7.382244 L160.987644,7.382244 C160.973604,7.382244 160.954644,7.382244 160.934604,7.385244 C158.205684,7.415364 155.907084,8.183844 154.208604,9.645684 L154.200564,9.645684 L154.045044,9.786084 C152.241084,11.416404 151.243884,13.829364 151.230924,16.687644 L151.229844,16.690644 L151.226844,16.701684 L151.212804,31.499004 C151.212804,31.696644 151.297044,31.891284 151.444524,32.028684 C151.592004,32.169204 151.798764,32.250444 152.006364,32.250444 L154.640004,32.250444 C154.847604,32.250444 155.051244,32.169204 155.200884,32.028684 C155.350404,31.891284 155.432484,31.696644 155.432484,31.499004 L155.438604,17.201244 C155.454684,15.106524 155.990484,13.621644 156.957564,12.640404 C157.894644,11.690364 159.324324,11.153604 161.292684,11.115444 C163.242084,11.153604 164.669724,11.690364 165.606684,12.640404 C166.572924,13.621644 167.108724,15.106524 167.125764,17.205324 L167.121684,31.499004 C167.121684,31.696644 167.205924,31.891284 167.353524,32.028684 C167.501964,32.169204 167.707644,32.250444 167.915364,32.250444 L170.552844,32.250444 C170.760684,32.250444 170.965284,32.169204 171.113724,32.028684 C171.264324,31.891284 171.346404,31.696644 171.346404,31.499004 L171.333444,16.729764 Z" id="Fill-9" fill="#D7006D"></path>
            <path d="M122.873592,9.908988 C122.859552,9.891948 122.845512,9.874908 122.826432,9.857868 C121.326432,8.474268 118.927632,7.617468 116.148672,7.614468 C116.111472,7.609428 116.053272,7.609428 115.999152,7.609428 C113.713632,7.608468 111.459312,8.086068 109.499952,9.763548 L109.497912,9.764508 L109.497912,8.292708 L109.501872,8.292708 L109.501872,0.836388 C109.501872,0.639708 109.417632,0.446148 109.270272,0.308628 C109.122672,0.169188 108.916992,0.087948 108.708312,0.087948 L106.112832,0.087948 C105.906192,0.087948 105.701472,0.169188 105.552072,0.308628 C105.402552,0.446148 105.320352,0.639708 105.320352,0.836388 L105.320352,8.292708 L105.322272,8.292708 L105.322272,24.122388 L105.320352,24.122388 L105.320352,31.538628 C105.320352,31.735308 105.405552,31.928988 105.552072,32.065308 C105.700632,32.205828 105.906192,32.286108 106.114872,32.286108 L108.709392,32.286108 C108.916992,32.286108 109.121712,32.205828 109.270272,32.065308 C109.420752,31.928988 109.502952,31.735308 109.502952,31.538628 L109.502952,30.005628 C111.234552,31.941948 113.719752,32.609028 115.999152,32.608069 L116.159712,32.608069 C118.932672,32.599068 121.331472,31.742268 122.826432,30.360828 C125.622552,27.714108 126.261552,23.656908 126.270672,19.885548 C126.262632,16.134348 125.622552,12.545628 122.873592,9.908988 L122.873592,9.908988 Z M122.094072,19.884588 L122.094072,19.936788 L122.094072,19.942788 L122.094072,19.996908 C122.087952,22.353708 121.837152,24.656148 120.941232,26.304468 C120.060432,27.889668 118.643832,28.948188 115.892832,28.990308 C115.874712,28.988268 115.845672,28.988268 115.790472,28.990308 L115.744392,28.990308 C112.975272,28.962228 111.539592,27.901788 110.654712,26.301468 C109.750752,24.647148 109.497912,22.325508 109.497912,19.953828 L109.497912,19.811388 C109.499952,17.455668 109.750752,15.565428 110.654712,13.918068 C111.539592,12.317868 112.975272,11.255388 115.744392,11.230308 L115.763352,11.230308 L115.808472,11.230308 L115.850712,11.230308 C118.621632,11.255388 120.052392,12.315948 120.944352,13.921188 C121.842192,15.565428 122.094072,17.455668 122.094072,19.811388 L122.094072,19.884588 Z" id="Fill-11" fill="#D7006D"></path>
            <path d="M56.450076,15.632892 L56.450076,15.615852 C56.451036,13.106652 55.616316,10.955652 53.866596,9.517932 C52.103916,8.070252 49.574676,7.389972 46.317996,7.38891122 L46.200636,7.38891122 L46.156476,7.38891122 C42.737316,7.378932 40.021476,8.123412 37.953636,10.323492 L37.945596,10.315452 L37.827276,10.457052 C37.671756,10.629612 37.519236,10.807092 37.371756,10.996812 C37.369836,10.998732 37.368756,11.000772 37.367796,11.002812 L37.156116,11.253612 C37.029756,11.403132 36.967476,11.604732 36.993516,11.807412 C37.015596,12.012132 37.118916,12.207732 37.276476,12.343092 L37.395876,12.446532 C37.442076,12.501732 37.492236,12.552852 37.548396,12.600012 L38.010876,12.979212 L39.240876,14.043732 C39.398436,14.181132 39.606036,14.254452 39.807756,14.244372 C40.007436,14.236332 40.195956,14.145132 40.321476,13.994532 L41.112036,13.056492 L41.110956,13.056492 C41.602596,12.521772 42.109236,12.142572 42.720276,11.875572 C43.583076,11.496372 44.690676,11.319852 46.289916,11.304732 L46.308996,11.304732 L46.363116,11.301732 C48.638556,11.307852 50.054196,11.770332 50.864916,12.481572 C51.673476,13.181892 52.083756,14.239332 52.089876,15.883692 C52.089876,15.894732 52.089876,15.923892 52.092876,15.960972 L52.092876,17.512092 L45.336756,17.512092 C42.610836,17.518092 40.331436,18.134052 38.686116,19.417212 C37.051716,20.672412 36.140796,22.604652 36.139836,24.855012 L36.140796,24.940332 C36.144756,26.815452 36.849036,28.654452 38.129316,29.931612 C39.858876,31.636092 42.162396,32.2551805 45.642756,32.2551805 L45.681876,32.2551805 L47.445636,32.2551805 C50.633076,32.258172 52.919556,31.470612 54.392316,29.882412 C55.862196,28.294212 56.451036,25.997772 56.451036,23.141412 L56.451036,15.676092 L56.450076,15.632892 Z M52.092876,23.260812 C52.086876,25.240332 51.653436,26.333772 51.071556,26.843412 C49.667916,28.138692 47.930196,28.333332 45.813276,28.3374309 L45.790236,28.3374309 L45.751116,28.3374309 C43.712556,28.340412 42.373116,27.986172 41.613636,27.436452 C40.892316,26.914692 40.520076,26.169252 40.502076,24.886092 L40.502076,24.827892 C40.515996,23.554812 40.902396,22.760172 41.631756,22.200372 C42.395196,21.619452 43.680396,21.242172 45.604716,21.242172 L45.621756,21.242172 L52.092876,21.242172 L52.092876,23.260812 Z" id="Fill-13" fill="#D7006D"></path>
            <path d="M148.306572,15.667524 L148.306572,15.650484 C148.307532,13.142244 147.472812,10.993284 145.722132,9.556644 C143.961372,8.109924 141.431052,7.429644 138.175452,7.4286034 L138.057132,7.4286034 L138.012972,7.4286034 C134.592732,7.419684 131.877972,8.162964 129.811092,10.361244 L129.802092,10.354164 L129.683772,10.495644 C129.528252,10.667244 129.375732,10.845804 129.227292,11.034444 C129.226212,11.036364 129.225132,11.038404 129.224172,11.040444 L129.012612,11.291244 C128.886132,11.440764 128.823972,11.642364 128.850012,11.845044 C128.872092,12.048684 128.975412,12.244404 129.132972,12.380844 L129.252372,12.484164 C129.298572,12.538284 129.348732,12.589524 129.404772,12.636684 L129.867372,13.015884 L131.097372,14.079324 C131.254812,14.215764 131.462532,14.290044 131.663172,14.279964 C131.863932,14.272044 132.051492,14.180604 132.177852,14.030124 L132.967452,13.093164 L132.967452,13.092084 C133.460052,12.558324 133.965732,12.179124 134.576652,11.912244 C135.439452,11.534004 136.547172,11.356404 138.146292,11.342484 L138.165372,11.341404 L138.219492,11.339364 C140.494932,11.344404 141.910572,11.807964 142.721292,12.518244 C143.529852,13.217484 143.939172,14.275044 143.946252,15.918324 C143.946252,15.929364 143.946252,15.958524 143.949252,15.995604 L143.949252,17.545644 L137.193252,17.545644 C134.467332,17.551644 132.187932,18.166764 130.542492,19.449924 C128.908212,20.703924 127.997172,22.635204 127.996212,24.884604 L127.997172,24.969924 C128.001252,26.843964 128.705532,28.681044 129.985692,29.957244 C131.715372,31.660764 134.018892,32.2797325 137.499132,32.2797325 L137.538372,32.2797325 L139.302132,32.2797325 C142.489452,32.282724 144.775932,31.495164 146.248812,29.907924 C147.718692,28.321884 148.307532,26.026284 148.307532,23.172084 L148.307532,15.710724 L148.306572,15.667524 Z M132.358452,24.914724 L132.358452,24.856524 C132.371532,23.585364 132.758772,22.790724 133.488132,22.232004 C134.251692,21.650004 135.536772,21.273804 137.461092,21.273804 L137.478252,21.273804 L143.949252,21.273804 L143.949252,23.290404 C143.943252,25.268844 143.509812,26.361444 142.927932,26.872164 C141.524292,28.165284 139.786692,28.359924 137.668812,28.3649728 L137.645652,28.3649728 L137.607612,28.3649728 C135.567972,28.367004 134.229492,28.013844 133.470012,27.463044 C132.747732,26.942364 132.376572,26.197884 132.358452,24.914724 L132.358452,24.914724 Z" id="Fill-15" fill="#D7006D"></path>
            <path d="M15.85884,7.47576 L11.4084,7.47576 L11.40636,2.96508 L11.40432,2.96508 L11.40336,0.78192 C11.40336,0.39072 11.06016,0.07068 10.6368,0.07068 L7.96116,0.07068 C7.75944,0.07068 7.56084,0.1458 7.42032,0.27828 C7.2768,0.41172 7.19256,0.59628 7.19256,0.78192 L7.19256,4.80408 L7.1946,4.80408 L7.1946,25.94904 C7.19652,27.6666 7.69128,29.2128 8.77872,30.3846 C9.81516,31.51824 11.49456,32.22552 13.43496,32.22552 L13.44192,32.22552 L14.7312,32.22552 L14.7312,32.20956 L15.85884,32.20956 C16.05444,32.20956 16.2462,32.12424 16.38252,31.9758 C16.52196,31.82724 16.60128,31.6206 16.60128,31.40988 L16.60128,28.7964 C16.60128,28.58772 16.52196,28.38096 16.38252,28.23156 C16.2462,28.08108 16.05444,27.9978 15.85884,27.9978 L13.79016,27.9978 C13.37172,27.98172 13.03572,27.9306 12.74268,27.82716 C12.55608,27.76296 12.44076,27.69072 12.33336,27.62256 C12.21492,27.53928 12.14976,27.49908 12.03336,27.37776 C11.63508,26.96136 11.4144,26.3022 11.4084,25.32 L11.4084,11.68848 L15.85884,11.68848 C16.05444,11.68848 16.2462,11.60328 16.38252,11.45472 C16.52196,11.30532 16.60128,11.09856 16.60128,10.88892 L16.60128,8.27436 C16.60128,8.06568 16.52196,7.86 16.38252,7.70952 C16.2462,7.55904 16.05444,7.47576 15.85884,7.47576" id="Fill-17" fill="#D7006D"></path>
            <path d="M35.04882,10.563768 L34.80198,10.288848 C34.7919,10.256688 34.7739,10.226688 34.74378,10.195608 L34.59426,10.042008 L34.59534,10.041048 L34.38966,9.829368 L34.22118,9.641808 L34.2141,9.648768 C32.70018,8.055528 30.81606,7.384368 28.80942,7.382328 C28.76838,7.382328 28.72014,7.383408 28.65186,7.384368 C27.22722,7.384368 25.54578,8.024448 24.53646,9.239448 L23.8413,10.065168 L23.8413,9.720048 L23.8413,8.219088 C23.8413,8.022408 23.75694,7.828848 23.60946,7.692408 C23.46102,7.551888 23.25534,7.471728 23.04666,7.471728 L20.45322,7.471728 C20.24442,7.471728 20.03982,7.551888 19.89126,7.692408 C19.74186,7.828848 19.65954,8.022408 19.65954,8.219088 L19.65954,9.720048 L19.65954,31.510128 C19.65954,31.707768 19.74378,31.900488 19.89126,32.037888 C20.03886,32.178288 20.24442,32.258568 20.45322,32.258568 L20.90058,32.258568 C20.91462,32.259528 20.92974,32.262648 20.94378,32.262648 L22.57806,32.262648 C22.59318,32.262648 22.60722,32.259528 22.62222,32.258568 L23.04762,32.258568 C23.25534,32.258568 23.45994,32.178288 23.60946,32.037888 C23.75898,31.900488 23.8413,31.707768 23.8413,31.510128 L23.8413,31.106808 C23.8413,31.101768 23.84226,31.096728 23.84226,31.091808 L23.84226,17.273688 C23.84226,17.255568 23.8413,17.238528 23.8413,17.220528 L23.8413,16.101888 C23.91942,14.817648 24.32682,13.660848 24.99498,12.821088 C25.71126,11.924208 26.76078,11.342328 28.1763,11.338248 C28.92582,11.338248 29.41842,11.427648 29.84478,11.605128 C30.25614,11.784768 30.67554,12.091728 31.22634,12.659568 L31.35078,12.788088 L31.91454,13.416048 C32.04702,13.564608 32.2407,13.651848 32.44434,13.653768 C32.64894,13.657848 32.85666,13.577568 33.01314,13.435128 L34.9575,11.665368 C35.11302,11.523888 35.21238,11.324208 35.22942,11.116608 C35.24946,10.911888 35.1813,10.711248 35.04882,10.563768" id="Fill-19" fill="#D7006D"></path>
            <path d="M100.417536,19.517484 C100.407576,19.509444 100.395456,19.503444 100.386456,19.496364 L100.383456,19.496364 C98.868576,18.439044 96.950256,18.070764 94.884576,17.894244 L91.011936,17.568084 C89.400576,17.432724 88.402416,17.097564 87.822456,16.642164 C87.330816,16.266924 87.025896,15.661884 87.016896,14.731884 L87.016896,14.710764 L87.013776,14.710764 L87.016896,14.662644 C87.025896,13.562124 87.453216,12.762444 88.212696,12.219684 C89.022456,11.635764 90.320616,11.263524 92.156616,11.261604 L92.171616,11.261604 L92.174736,11.261604 C94.517376,11.265564 96.454656,11.812404 98.070936,12.850764 L98.068896,12.853764 L99.051096,13.542924 C99.207576,13.653324 99.408336,13.694484 99.600816,13.649364 C99.796536,13.607244 99.974136,13.485804 100.090416,13.317324 L101.537256,11.208324 C101.653656,11.038764 101.703816,10.826124 101.675616,10.628484 C101.660616,10.519164 101.618496,10.416804 101.558376,10.327524 C101.505096,10.225164 101.428896,10.132884 101.328576,10.061604 L101.162016,9.942324 C98.853456,8.296884 95.633976,7.373844 92.163576,7.368804 C89.384616,7.369884 87.013776,8.038044 85.293216,9.317244 C83.586696,10.575324 82.583376,12.477444 82.582416,14.642604 L82.583376,14.672604 L82.583376,14.686764 L82.582416,14.744964 C82.582416,16.659204 83.291736,18.350724 84.708336,19.503444 C86.138976,20.674284 88.153536,21.298284 90.690816,21.503004 L94.670856,21.824964 C96.129576,21.958404 97.041576,22.282524 97.578336,22.732044 C98.046816,23.112204 98.345736,23.715204 98.348856,24.676404 L98.348856,24.728484 L98.348856,24.736524 C98.337816,25.948524 97.850136,26.784204 96.939216,27.364164 C95.962056,27.984204 94.372776,28.363404 92.163576,28.363404 L92.148576,28.363404 C92.140536,28.363404 92.126496,28.364364 92.107536,28.366404 L92.087376,28.366404 C89.172816,28.352364 87.101136,27.697164 85.488816,26.364924 L84.649056,25.654524 C84.498576,25.527084 84.299016,25.466964 84.097296,25.493964 C83.895696,25.520004 83.702976,25.626444 83.569656,25.787964 L81.903096,27.802524 C81.768696,27.964044 81.698496,28.175724 81.710496,28.380444 C81.719616,28.583124 81.812856,28.773684 81.963336,28.900044 L82.753896,29.569284 L82.750896,29.573364 C82.766976,29.585364 82.782936,29.595324 82.798056,29.607444 L82.901376,29.693724 L82.908456,29.685684 C85.355376,31.457484 88.409376,32.305164 92.148576,32.305164 L92.214816,32.305164 C95.297856,32.302284 97.899456,31.634124 99.797496,30.323844 C101.673696,29.031564 102.792336,27.037044 102.789349,24.736524 L102.789349,24.622164 C102.793296,22.302564 101.894376,20.553924 100.417536,19.517484" id="Fill-21" fill="#D7006D"></path>
            <path d="M195.953016,31.21584 L192.706416,26.63388 L186.201096,17.13492 L191.256696,11.7654 L194.200296,8.65428 L194.378856,8.45556 C194.719056,8.11344 194.552376,7.75728 194.405016,7.62084 C194.257536,7.48044 194.051736,7.39908 193.843176,7.39908 L190.463136,7.39908 C190.262376,7.39908 190.001616,7.5546 189.854136,7.686 C189.851016,7.68708 189.857136,7.68504 189.854136,7.686 L178.504056,19.7916 L178.504056,9.6756 L178.504056,0.74844 C178.504056,0.55176 178.418856,0.3582 178.272336,0.22068 C178.123896,0.08028 177.918096,0 177.709536,0 L175.115016,0 C174.907296,0 174.702696,0.08028 174.554136,0.22068 C174.403656,0.3582 174.321336,0.55176 174.321336,0.74844 L174.321336,9.6756 L174.321336,31.50684 C174.321336,31.7034 174.405576,31.89816 174.553176,32.03556 C174.701616,32.175 174.907296,32.25624 175.115976,32.25624 L177.710496,32.25624 C177.918096,32.25624 178.122816,32.175 178.272336,32.03556 C178.421736,31.89816 178.504056,31.7034 178.504056,31.50684 L178.504056,25.29756 L183.421056,19.96812 L186.729936,24.92028 L186.715776,24.92028 L191.368056,31.87308 C191.477376,32.02752 191.648976,32.27232 192.037176,32.27232 L195.417216,32.27232 C195.625896,32.27232 195.831576,32.19108 195.979056,32.05056 C196.126536,31.91316 196.223976,31.55796 195.953016,31.21584" id="Fill-23" fill="#D7006D"></path>
            <path d="M87.107676,47.14848 L86.501676,45.43692 L83.192796,45.43692 L82.585836,47.14848 L81.723036,47.14848 L84.512196,39.57276 L85.192356,39.57276 L87.968436,47.14848 L87.107676,47.14848 Z M84.863316,40.73256 L83.436636,44.7336 L86.266956,44.7336 L84.863316,40.73256 Z" id="Fill-25" fill="#807F80"></path>
            <path d="M92.533044,44.031876 L90.522444,44.031876 L90.522444,47.148036 L89.713884,47.148036 L89.713884,39.572316 L92.533044,39.572316 C93.916524,39.572316 94.874724,40.435116 94.874724,41.796636 C94.874724,43.159116 93.916524,44.031876 92.533044,44.031876 M92.458764,40.296756 L90.522444,40.296756 L90.522444,43.307556 L92.458764,43.307556 C93.405924,43.307556 94.064004,42.796836 94.064004,41.796636 C94.064004,40.797276 93.405924,40.296756 92.458764,40.296756" id="Fill-27" fill="#807F80"></path>
            <path d="M101.235972,46.425672 C100.725252,46.936392 100.055052,47.212272 99.300612,47.212272 C98.544132,47.212272 97.873932,46.936392 97.362372,46.425672 C96.649932,45.711432 96.649932,44.968032 96.649932,43.360632 C96.649932,41.754432 96.649932,41.008992 97.362372,40.296672 C97.873932,39.787032 98.544132,39.508152 99.300612,39.508152 C100.055052,39.508152 100.725252,39.787032 101.235972,40.296672 C101.948292,41.008992 101.948292,41.754432 101.948292,43.360632 C101.948292,44.968032 101.948292,45.711432 101.235972,46.425672 M100.607892,40.775232 C100.278732,40.435152 99.799212,40.233432 99.300612,40.233432 C98.799972,40.233432 98.319372,40.435152 97.990332,40.775232 C97.511772,41.264832 97.458612,41.775552 97.458612,43.360632 C97.458612,44.946912 97.511772,45.457512 97.990332,45.945192 C98.319372,46.288272 98.799972,46.489992 99.300612,46.489992 C99.799212,46.489992 100.278732,46.288272 100.607892,45.945192 C101.087532,45.457512 101.140692,44.946912 101.140692,43.360632 C101.140692,41.775552 101.087532,41.264832 100.607892,40.775232" id="Fill-29" fill="#807F80"></path>
            <polygon id="Fill-31" fill="#807F80" points="106.320852 44.02104 106.320852 47.14824 105.513252 47.14824 105.513252 44.02104 103.256892 39.57252 104.129652 39.57252 105.916572 43.20132 107.683332 39.57252 108.556212 39.57252"></polygon>
            <path d="M114.247068,47.14848 L113.639988,45.43692 L110.332188,45.43692 L109.725228,47.14848 L108.863508,47.14848 L111.650508,39.57276 L112.330788,39.57276 L115.108908,47.14848 L114.247068,47.14848 Z M112.001628,40.73256 L110.574948,44.7336 L113.406228,44.7336 L112.001628,40.73256 Z" id="Fill-33" fill="#807F80"></path>
            <polygon id="Fill-35" fill="#807F80" points="121.682844 47.14848 117.660564 41.07264 117.660564 47.14848 116.852004 47.14848 116.852004 39.57276 117.617484 39.57276 121.640604 45.62652 121.640604 39.57276 122.449284 39.57276 122.449284 47.14848"></polygon>
            <path d="M129.672468,46.447056 C129.214908,46.903536 128.544828,47.148336 127.758228,47.148336 L125.161788,47.148336 L125.161788,39.572616 L127.758228,39.572616 C128.544828,39.572616 129.214908,39.818376 129.672468,40.275936 C130.460028,41.062536 130.416948,42.223296 130.416948,43.276776 C130.416948,44.330136 130.460028,45.659496 129.672468,46.447056 M129.109668,40.849776 C128.715348,40.445496 128.205708,40.297056 127.619868,40.297056 L125.970348,40.297056 L125.970348,46.426056 L127.619868,46.426056 C128.205708,46.426056 128.715348,46.277496 129.109668,45.871176 C129.631308,45.329496 129.609348,44.201736 129.609348,43.276776 C129.609348,42.351696 129.631308,41.391576 129.109668,40.849776" id="Fill-37" fill="#807F80"></path>
            <path d="M137.140824,46.425672 C136.631184,46.936392 135.960984,47.212272 135.205584,47.212272 C134.448984,47.212272 133.778784,46.936392 133.270224,46.425672 C132.555864,45.711432 132.555864,44.968032 132.555864,43.360632 C132.555864,41.754432 132.555864,41.008992 133.270224,40.296672 C133.778784,39.787032 134.448984,39.508152 135.205584,39.508152 C135.960984,39.508152 136.631184,39.787032 137.140824,40.296672 C137.854104,41.008992 137.854104,41.754432 137.854104,43.360632 C137.854104,44.968032 137.854104,45.711432 137.140824,46.425672 M136.512864,40.775232 C136.183704,40.435152 135.706224,40.233432 135.205584,40.233432 C134.704824,40.233432 134.226384,40.435152 133.896264,40.775232 C133.417704,41.264832 133.365504,41.775552 133.365504,43.360632 C133.365504,44.946912 133.417704,45.457512 133.896264,45.945192 C134.226384,46.288272 134.704824,46.489992 135.205584,46.489992 C135.706224,46.489992 136.183704,46.288272 136.512864,45.945192 C136.992384,45.457512 137.045544,44.946912 137.045544,43.360632 C137.045544,41.775552 136.992384,41.264832 136.512864,40.775232" id="Fill-39" fill="#807F80"></path>
            <polygon id="Fill-41" fill="#807F80" points="148.281612 47.14848 144.258492 41.07264 144.258492 47.14848 143.449812 47.14848 143.449812 39.57276 144.216372 39.57276 148.238532 45.62652 148.238532 39.57276 149.046132 39.57276 149.046132 47.14848"></polygon>
            <polygon id="Fill-43" fill="#807F80" points="151.757628 47.14848 151.757628 39.57276 156.461868 39.57276 156.461868 40.29708 152.567148 40.29708 152.567148 42.9678 155.888028 42.9678 155.888028 43.69116 152.567148 43.69116 152.567148 46.42608 156.461868 46.42608 156.461868 47.14848"></polygon>
            <path d="M163.048164,46.340412 C162.515484,46.915332 161.803044,47.212332 161.025564,47.212332 C160.280124,47.212332 159.599844,46.936332 159.090204,46.425732 C158.375844,45.711372 158.375844,44.967972 158.375844,43.360692 C158.375844,41.754492 158.375844,41.009052 159.090204,40.296732 C159.599844,39.787092 160.269084,39.508092 161.025564,39.508092 C162.472164,39.508092 163.451364,40.445172 163.675164,41.775492 L162.866484,41.775492 C162.653844,40.818372 161.972604,40.233492 161.025564,40.233492 C160.524924,40.233492 160.046244,40.435212 159.716244,40.775292 C159.237684,41.264892 159.184524,41.775492 159.184524,43.360692 C159.184524,44.946852 159.237684,45.467652 159.716244,45.957132 C160.046244,46.298292 160.524924,46.489932 161.025564,46.489932 C161.579364,46.489932 162.110964,46.266132 162.461124,45.838812 C162.770244,45.467652 162.887604,45.053172 162.887604,44.467332 L162.887604,43.893372 L161.025564,43.893372 L161.025564,43.181052 L163.696164,43.181052 L163.696164,44.382012 C163.696164,45.254892 163.514724,45.838812 163.048164,46.340412" id="Fill-45" fill="#807F80"></path>
            <path d="M170.398524,46.425672 C169.887804,46.936392 169.218684,47.212272 168.462204,47.212272 C167.706684,47.212272 167.036484,46.936392 166.524924,46.425672 C165.812484,45.711432 165.812484,44.968032 165.812484,43.360632 C165.812484,41.754432 165.812484,41.008992 166.524924,40.296672 C167.036484,39.787032 167.706684,39.508152 168.462204,39.508152 C169.218684,39.508152 169.887804,39.787032 170.398524,40.296672 C171.110844,41.008992 171.110844,41.754432 171.110844,43.360632 C171.110844,44.968032 171.110844,45.711432 170.398524,46.425672 M169.770564,40.775232 C169.441284,40.435152 168.961764,40.233432 168.462204,40.233432 C167.961564,40.233432 167.483964,40.435152 167.153964,40.775232 C166.674444,41.264832 166.621164,41.775552 166.621164,43.360632 C166.621164,44.946912 166.674444,45.457512 167.153964,45.945192 C167.483964,46.288272 167.961564,46.489992 168.462204,46.489992 C168.961764,46.489992 169.441284,46.288272 169.770564,45.945192 C170.250084,45.457512 170.303244,44.946912 170.303244,43.360632 C170.303244,41.775552 170.250084,41.264832 169.770564,40.775232" id="Fill-47" fill="#807F80"></path>
            <g id="Group-51" transform="translate(173.160000, 39.412560)">
                <mask id="mask-6" fill="white">
                    <use xlink:href="#path-5"></use>
                </mask>
                <g id="Clip-50"></g>
                <path d="M2.738832,7.800024 C1.994472,7.800024 1.313232,7.523064 0.802512,7.013424 C0.089232,6.299184 0.089232,5.555664 0.089232,3.948384 C0.089232,2.341224 0.089232,1.596744 0.802512,0.884424 C1.313232,0.373824 1.994472,0.095904 2.738832,0.095904 C4.100352,0.095904 5.111592,0.926544 5.366352,2.351184 L4.536672,2.351184 C4.335072,1.427184 3.685992,0.821184 2.738832,0.821184 C2.238192,0.821184 1.759632,1.010784 1.430592,1.351944 C0.951072,1.841544 0.897792,2.362344 0.897792,3.948384 C0.897792,5.534664 0.951072,6.055344 1.430592,6.543864 C1.759632,6.885024 2.238192,7.077624 2.738832,7.077624 C3.685992,7.077624 4.356192,6.469704 4.558752,5.544624 L5.366352,5.544624 C5.121552,6.971304 4.090272,7.800024 2.738832,7.800024" id="Fill-49" fill="#807F80" mask="url(#mask-6)"></path>
            </g>
            <mask id="mask-8" fill="white">
                <use xlink:href="#path-7"></use>
            </mask>
            <g id="Clip-53"></g>
            <polygon id="Fill-52" fill="#807F80" mask="url(#mask-8)" points="180.8346 47.14788 181.64328 47.14788 181.64328 39.57216 180.8346 39.57216"></polygon>
            <path d="M188.655624,46.425672 C188.143944,46.936392 187.474704,47.212272 186.719304,47.212272 C185.962824,47.212272 185.292624,46.936392 184.782984,46.425672 C184.068624,45.711432 184.068624,44.968032 184.068624,43.360632 C184.068624,41.754432 184.068624,41.008992 184.782984,40.296672 C185.292624,39.787032 185.962824,39.508152 186.719304,39.508152 C187.474704,39.508152 188.143944,39.787032 188.655624,40.296672 C189.367944,41.008992 189.367944,41.754432 189.367944,43.360632 C189.367944,44.968032 189.367944,45.711432 188.655624,46.425672 M188.026584,40.775232 C187.697544,40.435152 187.218864,40.233432 186.719304,40.233432 C186.217704,40.233432 185.740104,40.435152 185.409984,40.775232 C184.931424,41.264832 184.877304,41.775552 184.877304,43.360632 C184.877304,44.946912 184.931424,45.457512 185.409984,45.945192 C185.740104,46.288272 186.217704,46.489992 186.719304,46.489992 C187.218864,46.489992 187.697544,46.288272 188.026584,45.945192 C188.507184,45.457512 188.560344,44.946912 188.560344,43.360632 C188.560344,41.775552 188.507184,41.264832 188.026584,40.775232" id="Fill-54" fill="#807F80" mask="url(#mask-8)"></path>
            <path d="M193.73958,47.212584 C192.60198,47.212584 191.85738,46.924704 191.14314,46.212384 L191.6979,45.659544 C192.32502,46.287624 192.91098,46.490184 193.76178,46.490184 C194.86926,46.490184 195.54954,45.967584 195.54954,45.084624 C195.54954,44.690304 195.43122,44.351184 195.18834,44.137584 C194.94246,43.924824 194.75094,43.859664 194.1981,43.774344 L193.31526,43.636944 C192.71826,43.541544 192.25074,43.350024 191.9217,43.064064 C191.53734,42.721944 191.3469,42.255384 191.3469,41.647464 C191.3469,40.360224 192.27186,39.508464 193.77174,39.508464 C194.74086,39.508464 195.37998,39.754224 196.02702,40.339104 L195.50634,40.860864 C195.03882,40.434504 194.5371,40.212744 193.73958,40.212744 C192.73038,40.212744 192.14538,40.775544 192.14538,41.616264 C192.14538,41.988504 192.25074,42.287544 192.48342,42.488184 C192.71826,42.690744 193.11246,42.839304 193.50582,42.903504 L194.3355,43.030944 C195.04986,43.137264 195.40002,43.286784 195.71898,43.562664 C196.13442,43.913784 196.35714,44.436504 196.35714,45.063504 C196.35714,46.393944 195.3147,47.212584 193.73958,47.212584" id="Fill-55" fill="#807F80" mask="url(#mask-8)"></path>
            <path d="M166.895556,0.235332 L167.354076,0.235332 L168.035316,2.240892 L168.717636,0.235332 L169.170036,0.235332 L169.170036,2.608092 L168.864996,2.608092 L168.864996,1.204452 C168.864996,1.155372 168.867036,1.081092 168.867036,0.964692 C168.867036,0.852372 168.873996,0.738012 168.873996,0.606612 L168.193836,2.608092 L167.873676,2.608092 L167.194476,0.606612 L167.194476,0.676812 L167.194476,0.940572 C167.199516,1.066092 167.199516,1.151292 167.199516,1.204452 L167.199516,2.608092 L166.895556,2.608092 L166.895556,0.235332 Z" id="Fill-56" fill="#D7006D" mask="url(#mask-8)"></path>
            <path d="M170.543244,0.235332 L171.626844,0.235332 C171.804444,0.235332 171.953964,0.260412 172.064244,0.314652 C172.285044,0.411972 172.392324,0.598572 172.392324,0.872412 C172.392324,1.013892 172.368204,1.130292 172.307004,1.222572 C172.243884,1.309812 172.162524,1.388052 172.055244,1.442292 C172.148484,1.482492 172.224804,1.528572 172.270884,1.589772 C172.314084,1.650972 172.340244,1.754292 172.340244,1.891692 L172.358244,2.204772 C172.358244,2.299092 172.370364,2.365332 172.379244,2.410452 C172.401324,2.480652 172.434444,2.529852 172.484724,2.549892 L172.484724,2.608092 L172.091364,2.608092 C172.080324,2.583012 172.075284,2.558892 172.064244,2.529852 C172.055244,2.496732 172.053204,2.434572 172.051164,2.342172 L172.029204,1.944972 C172.018044,1.787412 171.966924,1.683012 171.861564,1.631892 C171.804444,1.603812 171.703044,1.589772 171.576684,1.589772 L170.863284,1.589772 L170.863284,2.608092 L170.543244,2.608092 L170.543244,0.235332 Z M171.590724,1.319892 C171.735204,1.319892 171.852564,1.291812 171.941844,1.230612 C172.020204,1.175412 172.068324,1.066092 172.068324,0.902532 C172.068324,0.738012 172.011084,0.619572 171.886644,0.557412 C171.821364,0.524292 171.735204,0.509292 171.631764,0.509292 L170.863284,0.509292 L170.863284,1.319892 L171.590724,1.319892 Z" id="Fill-57" fill="#D7006D" mask="url(#mask-8)"></path>
            <path d="M169.8693,2.59584 C169.77798,2.59584 169.71486,2.52756 169.71486,2.42328 C169.71486,2.31888 169.78002,2.24772 169.87938,2.24772 C169.97262,2.24772 170.03982,2.31888 170.03982,2.42328 C170.03982,2.52756 169.97262,2.59584 169.8693,2.59584" id="Fill-58" fill="#D7006D" mask="url(#mask-8)"></path>
            <path d="M173.117508,2.59584 C173.023188,2.59584 172.953948,2.52756 172.953948,2.42328 C172.953948,2.31888 173.023188,2.24772 173.121468,2.24772 C173.220828,2.24772 173.285028,2.31888 173.285028,2.42328 C173.285028,2.52756 173.220828,2.59584 173.119548,2.59584 L173.117508,2.59584 Z" id="Fill-59" fill="#D7006D" mask="url(#mask-8)"></path>
        </g>
    </g>
</svg>